<?xml version="1.0" encoding="UTF-8"?>
<svg id="Layer_2" data-name="Layer 2" xmlns="http://www.w3.org/2000/svg" viewBox="0 0 314.52 314.52">
  <defs>
    <style>
      .cls-1 {
        fill: #fff;
      }

      .cls-2 {
        fill: #356d3c;
      }
    </style>
  </defs>
  <g id="Layer_1-2" data-name="Layer 1">
    <circle class="cls-2" cx="157.26" cy="157.26" r="157.26"/>
    <circle class="cls-1" cx="157.26" cy="157.26" r="147.52"/>
    <circle class="cls-2" cx="157.26" cy="157.26" r="138.05"/>
    <path class="cls-1" d="M226.03,99.95H88.49c-3.17,0-5.73,2.57-5.73,5.73v97.42c0,6.33,5.13,11.46,11.46,11.46h126.08c6.33,0,11.46-5.13,11.46-11.46v-97.42c0-3.17-2.57-5.73-5.73-5.73ZM211.29,111.41l-54.03,49.54-54.03-49.54h108.07ZM220.3,203.11h-126.08v-84.39l59.16,54.23c2.19,2.01,5.56,2.01,7.75,0l59.16-54.23v84.39Z"/>
  </g>
</svg>