<?xml version="1.0" encoding="UTF-8"?>
<svg id="Layer_2" data-name="Layer 2" xmlns="http://www.w3.org/2000/svg" viewBox="0 0 314.52 314.52">
  <defs>
    <style>
      .cls-1 {
        fill: #fff;
      }

      .cls-2 {
        fill: #c79d42;
      }
    </style>
  </defs>
  <g id="Layer_1-2" data-name="Layer 1">
    <circle class="cls-2" cx="157.26" cy="157.26" r="157.26"/>
    <circle class="cls-1" cx="157.26" cy="157.26" r="147.52"/>
    <circle class="cls-2" cx="157.26" cy="157.26" r="138.05"/>
    <path class="cls-1" d="M216.46,119.21c3.41-11,2.06-22.93-3.71-32.89-.99-1.71-2.81-2.76-4.78-2.76-13.03-.03-25.31,6.11-33.11,16.56h-16.56c-7.8-10.44-20.08-16.58-33.11-16.56-1.97,0-3.79,1.05-4.78,2.76-5.78,9.96-7.12,21.89-3.71,32.89-3.41,5.95-5.24,12.68-5.3,19.54v5.52c.02,19.31,14.29,35.64,33.41,38.26-3.78,4.83-5.83,10.79-5.82,16.92v5.52h-16.56c-9.14,0-16.56-7.41-16.56-16.56,0-15.24-12.35-27.59-27.59-27.59-3.05,0-5.52,2.47-5.52,5.52s2.47,5.52,5.52,5.52c9.14,0,16.56,7.41,16.56,16.56,0,15.24,12.35,27.59,27.59,27.59h16.56v11.04c0,3.05,2.47,5.52,5.52,5.52s5.52-2.47,5.52-5.52v-27.59c0-9.14,7.41-16.56,16.56-16.56s16.56,7.41,16.56,16.56v27.59c0,3.05,2.47,5.52,5.52,5.52s5.52-2.47,5.52-5.52v-27.59c0-6.13-2.05-12.09-5.82-16.92,19.13-2.62,33.39-18.96,33.41-38.26v-5.52c-.07-6.86-1.9-13.58-5.3-19.54ZM210.72,144.27c0,15.24-12.35,27.59-27.59,27.59h-33.11c-15.24,0-27.59-12.35-27.59-27.59v-5.52c.07-5.52,1.72-10.9,4.76-15.51,1.15-1.52,1.44-3.52.76-5.3-2.9-7.49-2.71-15.82.54-23.16,9.15.98,17.35,6.08,22.29,13.84,1.01,1.58,2.75,2.54,4.63,2.55h22.32c1.88,0,3.64-.96,4.65-2.55,4.94-7.76,13.15-12.85,22.29-13.84,3.25,7.34,3.44,15.68.53,23.16-.68,1.76-.42,3.75.69,5.28,3.07,4.61,4.75,10,4.83,15.53v5.52Z"/>
  </g>
</svg>