<?xml version="1.0" encoding="UTF-8"?>
<svg id="Layer_2" data-name="Layer 2" xmlns="http://www.w3.org/2000/svg" viewBox="0 0 314.53 314.53">
  <defs>
    <style>
      .cls-1 {
        fill: #fff;
      }

      .cls-2 {
        fill: #f7931e;
      }
    </style>
  </defs>
  <g id="Layer_1-2" data-name="Layer 1">
    <circle class="cls-2" cx="157.26" cy="157.26" r="157.26"/>
    <circle class="cls-1" cx="157.26" cy="157.26" r="147.52"/>
    <circle class="cls-2" cx="157.26" cy="157.26" r="138.05"/>
    <g>
      <path class="cls-1" d="M54.4,175.66c0-3.83,2.73-6.56,6.01-6.56h1.64c3.28,0,6.01,2.73,6.01,6.56v1.83c0,3.83,2.18,6.56,6.01,6.56s6.01-2.73,6.01-6.56v-2.65c0-4.37-1-7.11-4.37-8.93l-11.3-6.11c-8.29-4.56-10.11-11.12-10.02-18.77v-4.56c0-10.38,8.2-18.58,18.58-18.58h2.18c10.38,0,18.58,8.2,18.58,18.58v1.1c0,3.83-2.73,6.56-6.01,6.56h-1.64c-3.28,0-6.01-2.73-6.01-6.56v-.55c0-3.83-2.19-6.56-6.01-6.56s-6.01,2.73-6.01,6.56v1.83c0,4.37,1,7.11,4.37,9.02l11.3,6.11c8.29,4.47,10.02,9.93,10.02,17.58v6.47c0,10.38-8.2,18.58-18.58,18.58h-2.19c-10.38,0-18.58-8.2-18.58-18.58v-2.38Z"/>
      <path class="cls-1" d="M105.74,125.55c0-3.83,2.73-6.56,6.01-6.56h1.64c3.28,0,6.01,2.73,6.01,6.56v56.32h10.02c3.82,0,6.56,2.73,6.56,6.01v1.64c0,3.28-2.73,6.01-6.56,6.01h-20.4c-2.18,0-3.28-1.09-3.28-3.28v-66.7Z"/>
      <path class="cls-1" d="M195.15,137.03c0-3.83-2.18-6.56-6.01-6.56s-6.01,2.73-6.01,6.56v51.95c0,3.83-2.73,6.56-6.01,6.56h-1.64c-3.28,0-6.01-2.73-6.01-6.56v-51.95c0-3.83-2.19-6.56-6.01-6.56s-6.01,2.73-6.01,6.56v51.95c0,3.83-2.73,6.56-6.01,6.56h-1.64c-3.28,0-6.01-2.73-6.01-6.56v-52.49c0-12.02,8.2-18.58,17.49-18.58h1.64c4.37,0,9.84,2.19,12.57,5.47h1.64c2.73-3.28,8.2-5.47,12.57-5.47h1.64c9.29,0,17.49,6.56,17.49,18.58v52.49c0,3.83-2.73,6.56-6.01,6.56h-1.64c-3.28,0-6.01-2.73-6.01-6.56v-51.95Z"/>
      <path class="cls-1" d="M220.79,175.66c0-3.83,2.73-6.56,6.01-6.56h1.64c3.28,0,6.01,2.73,6.01,6.56v1.83c0,3.83,2.18,6.56,6.01,6.56s6.01-2.73,6.01-6.56v-2.65c0-4.37-1-7.11-4.37-8.93l-11.3-6.11c-8.29-4.56-10.11-11.12-10.02-18.77v-4.56c0-10.38,8.2-18.58,18.58-18.58h2.18c10.38,0,18.58,8.2,18.58,18.58v1.1c0,3.83-2.73,6.56-6.01,6.56h-1.64c-3.28,0-6.01-2.73-6.01-6.56v-.55c0-3.83-2.19-6.56-6.01-6.56s-6.01,2.73-6.01,6.56v1.83c0,4.37,1,7.11,4.37,9.02l11.3,6.11c8.29,4.47,10.02,9.93,10.02,17.58v6.47c0,10.38-8.2,18.58-18.58,18.58h-2.19c-10.38,0-18.58-8.2-18.58-18.58v-2.38Z"/>
    </g>
  </g>
</svg>