<?xml version="1.0" encoding="UTF-8"?>
<svg id="Layer_2" data-name="Layer 2" xmlns="http://www.w3.org/2000/svg" viewBox="0 0 314.52 314.52">
  <defs>
    <style>
      .cls-1 {
        fill: #fff;
      }

      .cls-2 {
        fill: #c79d42;
      }
    </style>
  </defs>
  <g id="Layer_1-2" data-name="Layer 1">
    <circle class="cls-2" cx="157.26" cy="157.26" r="157.26"/>
    <circle class="cls-1" cx="157.26" cy="157.26" r="147.52"/>
    <circle class="cls-2" cx="157.26" cy="157.26" r="138.05"/>
    <path class="cls-1" d="M199.96,169.32l-22.92-11.46c-1.84-.92-4.02-.78-5.73.36l-10.52,7.02c-4.83-2.66-8.81-6.63-11.46-11.46l7.02-10.52c1.14-1.71,1.27-3.89.36-5.73l-11.46-22.92c-.97-1.96-2.97-3.19-5.15-3.19-15.83,0-28.65,12.83-28.65,28.65.04,34.8,28.24,63,63.04,63.04,15.83,0,28.65-12.83,28.65-28.65,0-2.17-1.22-4.16-3.17-5.13ZM174.47,191.64c-28.47-.03-51.55-23.1-51.58-51.58,0-8.2,5.78-15.25,13.82-16.86l8.22,16.48-7,10.42c-1.06,1.59-1.26,3.61-.52,5.38,4.1,9.75,11.85,17.5,21.6,21.6,1.77.77,3.82.59,5.43-.47l10.47-6.98,16.48,8.22c-1.62,8.05-8.7,13.83-16.91,13.8ZM157.28,82.75c-41.15,0-74.51,33.34-74.52,74.48,0,12.22,3,24.25,8.74,35.03l-8.13,24.39c-2,6,1.24,12.5,7.25,14.5,2.35.78,4.9.78,7.25,0l24.39-8.13c36.33,19.32,81.44,5.54,100.76-30.79,19.32-36.33,5.54-81.44-30.79-100.76-10.76-5.72-22.76-8.72-34.95-8.73ZM157.28,220.29c-11.08,0-21.97-2.91-31.56-8.46-1.42-.82-3.13-1-4.68-.48l-26.79,8.94,8.93-26.79c.52-1.56.35-3.26-.47-4.68-17.43-30.14-7.13-68.7,23.01-86.13,30.14-17.43,68.7-7.13,86.13,23.01,17.43,30.14,7.13,68.7-23.01,86.13-9.59,5.55-20.47,8.47-31.55,8.47Z"/>
  </g>
</svg>