<?xml version="1.0" encoding="UTF-8"?>
<svg id="Layer_2" data-name="Layer 2" xmlns="http://www.w3.org/2000/svg" viewBox="0 0 314.53 314.53">
  <defs>
    <style>
      .cls-1 {
        fill: #fff;
      }

      .cls-2 {
        fill: #c79d42;
      }
    </style>
  </defs>
  <g id="Layer_1-2" data-name="Layer 1">
    <circle class="cls-2" cx="157.26" cy="157.26" r="157.26"/>
    <circle class="cls-1" cx="157.26" cy="157.26" r="147.52"/>
    <circle class="cls-2" cx="157.26" cy="157.26" r="138.05"/>
    <g>
      <path class="cls-1" d="M99.63,125.59c0-3.82,2.73-6.55,6-6.55h1.64c3.28,0,6,2.73,6,6.55v52.44c0,12.01-8.19,18.56-17.47,18.56h-1.64c-4.37,0-9.83-2.18-12.56-5.46h-1.64c-2.73,3.28-8.19,5.46-12.55,5.46h-1.64c-9.28,0-17.47-6.55-17.47-18.56v-52.44c0-3.82,2.73-6.55,6-6.55h1.64c3.28,0,6,2.73,6,6.55v51.89c0,3.82,2.18,6.55,6.01,6.55s6-2.73,6-6.55v-51.89c0-3.82,2.73-6.55,6-6.55h1.64c3.28,0,6,2.73,6,6.55v51.89c0,3.82,2.18,6.55,6.01,6.55s6-2.73,6-6.55v-51.89Z"/>
      <path class="cls-1" d="M125.24,136.51c0-10.37,8.19-18.56,18.56-18.56h2.18c10.37,0,18.56,8.19,18.56,18.56v41.52c0,10.37-8.19,18.56-18.56,18.56h-2.18c-10.37,0-18.56-8.19-18.56-18.56v-41.52ZM150.9,137.05c0-3.82-2.18-6.55-6-6.55s-6,2.73-6,6.55v40.42c0,3.82,2.18,6.55,6,6.55s6-2.73,6-6.55v-40.42Z"/>
      <path class="cls-1" d="M176.53,122.31c0-2.18,1.09-3.28,3.27-3.28h17.47c10.37,0,18.56,8.19,18.56,18.56v9.57c0,6.55-2.18,12.01-8.19,14.74v1.09c6,2,8.19,6.73,8.19,13.28v12.66c0,3.82-2.73,6.55-6,6.55h-1.64c-3.28,0-6-2.73-6-6.55v-14.3c0-3.82-2.73-6-5.46-6h-6.55v20.3c0,3.82-2.73,6.55-6,6.55h-1.64c-3.28,0-6-2.73-6-6.55v-66.63ZM202.19,150.26v-12.12c0-3.82-2.73-6-5.46-6h-6.55v24.13h6.55c2.73,0,5.46-2.18,5.46-6Z"/>
      <path class="cls-1" d="M226.91,125.59c0-3.82,2.73-6.55,6-6.55h1.64c3.28,0,6,2.73,6,6.55v24.21h6.55c2.73,0,5.46-2.18,5.46-6v-18.21c0-3.82,2.73-6.55,6-6.55h1.64c3.28,0,6,2.73,6,6.55v15.48c0,6.55-2.18,12.01-8.19,14.74v1.09c6.01,2.73,8.19,8.19,8.19,14.74v17.3c0,3.82-2.73,6.55-6,6.55h-1.64c-3.28,0-6-2.73-6-6.55v-20.03c0-3.82-2.73-6.01-5.46-6.01h-6.55v26.04c0,3.82-2.73,6.55-6,6.55h-1.64c-3.28,0-6-2.73-6-6.55v-63.35Z"/>
    </g>
  </g>
</svg>